<!-- Generated by IcoMoon.io -->
<svg version="1.1" xmlns="http://www.w3.org/2000/svg" width="26" height="20" viewBox="0 0 26 20">
<title>tripadvisor</title>
<path d="M7.266 11.127c0 0.58-0.469 1.049-1.038 1.049-0.58 0-1.049-0.469-1.049-1.049 0-0.569 0.469-1.038 1.049-1.038 0.569 0 1.038 0.469 1.038 1.038zM20.145 11.116c0 0.58-0.469 1.049-1.049 1.049s-1.049-0.469-1.049-1.049 0.469-1.038 1.049-1.038 1.049 0.458 1.049 1.038zM8.538 11.127c0-1.183-0.971-2.154-2.154-2.154-1.194 0-2.154 0.971-2.154 2.154 0 1.194 0.96 2.154 2.154 2.154 1.183 0 2.154-0.96 2.154-2.154zM21.406 11.116c0-1.183-0.96-2.154-2.154-2.154-1.183 0-2.154 0.971-2.154 2.154 0 1.194 0.971 2.154 2.154 2.154 1.194 0 2.154-0.96 2.154-2.154zM9.487 11.127c0 1.719-1.384 3.114-3.103 3.114s-3.114-1.395-3.114-3.114c0-1.708 1.395-3.103 3.114-3.103s3.103 1.395 3.103 3.103zM22.366 11.116c0 1.719-1.395 3.103-3.114 3.103-1.708 0-3.103-1.384-3.103-3.103s1.395-3.103 3.103-3.103c1.719 0 3.114 1.384 3.114 3.103zM11.607 11.15c0-2.846-2.31-5.156-5.156-5.156-2.835 0-5.145 2.31-5.145 5.156s2.31 5.156 5.145 5.156c2.846 0 5.156-2.31 5.156-5.156zM19.063 4.754c-1.842-0.804-3.917-1.239-6.205-1.239s-4.565 0.435-6.395 1.228c3.538 0.011 6.395 2.868 6.395 6.406 0-3.471 2.757-6.295 6.205-6.395zM24.408 11.15c0-2.846-2.299-5.156-5.145-5.156s-5.156 2.31-5.156 5.156 2.31 5.156 5.156 5.156 5.145-2.31 5.145-5.156zM21.44 4.833h4.275c-0.67 0.781-1.161 1.83-1.283 2.556 0.77 1.060 1.228 2.355 1.228 3.761 0 3.538-2.868 6.395-6.395 6.395-2.009 0-3.795-0.915-4.967-2.355 0 0-0.525 0.625-1.44 1.998-0.156-0.324-0.949-1.451-1.429-2.009-1.172 1.451-2.969 2.366-4.978 2.366-3.527 0-6.395-2.857-6.395-6.395 0-1.406 0.458-2.701 1.228-3.761-0.123-0.725-0.614-1.775-1.283-2.556h4.074c2.188-1.462 5.368-2.377 8.783-2.377s6.395 0.915 8.583 2.377z"></path>
</svg>
