<svg xmlns="http://www.w3.org/2000/svg" viewBox="0 0 411.257 59.65"><title>logo</title><g style="isolation:isolate"><path d="M22.8.288V3.5H4.7V14.736H20.446v3.216H4.7V33.5H1.15V.288Z" transform="translate(-1.15 0.672)" fill="#ffffff"/><path d="M51.357,9.744A9.771,9.771,0,0,1,50.182,14.4a8.639,8.639,0,0,1-3.48,3.5,5.408,5.408,0,0,1,2.112,1.008,5.245,5.245,0,0,1,1.3,1.56,6.083,6.083,0,0,1,.648,1.944,13.448,13.448,0,0,1,.168,2.112v5.04a7.648,7.648,0,0,0,.288,2.111,7.8,7.8,0,0,0,.768,1.824h-3.84a4.37,4.37,0,0,1-.6-1.872,17.731,17.731,0,0,1-.12-1.872v-5.28a5.582,5.582,0,0,0-.336-1.9,4.662,4.662,0,0,0-1.056-1.68,5.256,5.256,0,0,0-1.872-1.2,7.731,7.731,0,0,0-2.832-.456H31.293V33.5H27.742V.288H41.326a10.465,10.465,0,0,1,4.32.84A9.793,9.793,0,0,1,48.79,3.312a9.121,9.121,0,0,1,1.92,3.049A9.462,9.462,0,0,1,51.357,9.744ZM31.293,16.128H41.326a6.211,6.211,0,0,0,2.472-.5,6.737,6.737,0,0,0,2.064-1.368,6.581,6.581,0,0,0,1.416-2.04,6.078,6.078,0,0,0,.528-2.52,6.269,6.269,0,0,0-.48-2.473A5.732,5.732,0,0,0,45.981,5.28a6.465,6.465,0,0,0-2.064-1.3,6.91,6.91,0,0,0-2.592-.48H31.293Z" transform="translate(-1.15 0.672)" fill="#ffffff"/><path d="M70.941.288,83.037,33.5H79.293L75.6,23.328H61.341L57.645,33.5H53.853L66.093.288Zm-2.5,3.264L62.493,20.208H74.4Z" transform="translate(-1.15 0.672)" fill="#ffffff"/><path d="M90.909.288l16.9,28.7V.288h3.552V33.5H106.6L89.708,4.8V33.5H86.157V.288Z" transform="translate(-1.15 0.672)" fill="#ffffff"/><path d="M119.9.288V17.28L136.844.288H141.5L128.349,13.344l13.92,20.16H137.8L125.9,15.888l-6,5.9V33.5h-3.552V.288Z" transform="translate(-1.15 0.672)" fill="#ffffff"/><path d="M150.572.288v30h16.7V33.5H147.021V.288Z" transform="translate(-1.15 0.672)" fill="#ffffff"/><path d="M177.547.288V33.5H174V.288Z" transform="translate(-1.15 0.672)" fill="#ffffff"/><path d="M189.115.288l16.9,28.7V.288h3.551V33.5h-4.751l-16.9-28.7V33.5h-3.552V.288Z" transform="translate(-1.15 0.672)" fill="#ffffff"/><path d="M232.555,16.464a19.958,19.958,0,0,0,.984,6.6,13.818,13.818,0,0,0,2.592,4.633,10.683,10.683,0,0,0,3.624,2.735,9.908,9.908,0,0,0,4.128.912,9.55,9.55,0,0,0,3.936-.792,10.14,10.14,0,0,0,3.072-2.088,11.488,11.488,0,0,0,2.136-2.952,12.892,12.892,0,0,0,1.176-3.384h3.6a17.855,17.855,0,0,1-1.608,4.824,14.116,14.116,0,0,1-2.9,3.912,13.21,13.21,0,0,1-4.128,2.64,13.871,13.871,0,0,1-5.28.96,14.9,14.9,0,0,1-6.145-1.224,12.88,12.88,0,0,1-4.68-3.553,16.461,16.461,0,0,1-3-5.664A25.184,25.184,0,0,1,229,16.416a20.426,20.426,0,0,1,1.008-6.36,17.227,17.227,0,0,1,2.9-5.472A14.4,14.4,0,0,1,237.57.768a13.339,13.339,0,0,1,6.265-1.439,16.426,16.426,0,0,1,5.3.792A13.133,13.133,0,0,1,253.194,2.3a12.423,12.423,0,0,1,2.88,3.313A17.908,17.908,0,0,1,257.9,9.84h-3.744a11.092,11.092,0,0,0-3.815-5.568,10.837,10.837,0,0,0-6.5-1.823,9.351,9.351,0,0,0-4.561,1.128,11.206,11.206,0,0,0-3.552,3.071,15.115,15.115,0,0,0-2.328,4.488A16.871,16.871,0,0,0,232.555,16.464Z" transform="translate(-1.15 0.672)" fill="#ffffff"/><path d="M292.7,16.944a23.768,23.768,0,0,1-.984,7.031,15.7,15.7,0,0,1-2.9,5.5,13.468,13.468,0,0,1-4.681,3.6,16.194,16.194,0,0,1-12.7,0,13.17,13.17,0,0,1-4.681-3.6,15.921,15.921,0,0,1-2.88-5.5,23.768,23.768,0,0,1-.983-7.031,23.78,23.78,0,0,1,.983-7.032,15.93,15.93,0,0,1,2.88-5.5,13.17,13.17,0,0,1,4.681-3.6,16.194,16.194,0,0,1,12.7,0,13.468,13.468,0,0,1,4.681,3.6,15.71,15.71,0,0,1,2.9,5.5A23.779,23.779,0,0,1,292.7,16.944Zm-3.552,0a19.037,19.037,0,0,0-.888-6.024,13.531,13.531,0,0,0-2.425-4.488,10.7,10.7,0,0,0-3.6-2.808,10.613,10.613,0,0,0-8.928,0,10.682,10.682,0,0,0-3.6,2.808,13.184,13.184,0,0,0-2.4,4.488,19.485,19.485,0,0,0-.864,6.024,19.474,19.474,0,0,0,.864,6.023,13.175,13.175,0,0,0,2.4,4.488,10.658,10.658,0,0,0,3.6,2.808,10.613,10.613,0,0,0,8.928,0,10.673,10.673,0,0,0,3.6-2.808,13.522,13.522,0,0,0,2.425-4.488A19.026,19.026,0,0,0,289.146,16.944Z" transform="translate(-1.15 0.672)" fill="#ffffff"/><path d="M301.29.288V22.656a8.673,8.673,0,0,0,.744,3.647,8.377,8.377,0,0,0,1.943,2.736,8.717,8.717,0,0,0,2.712,1.7,8.193,8.193,0,0,0,3.048.6A10.137,10.137,0,0,0,313,30.792a9.073,9.073,0,0,0,2.928-1.632,8.119,8.119,0,0,0,2.088-2.688,8.31,8.31,0,0,0,.792-3.72V.288h3.552V22.512a11.184,11.184,0,0,1-1.128,5.112,11.72,11.72,0,0,1-2.928,3.744,12.959,12.959,0,0,1-4.032,2.3,13.335,13.335,0,0,1-4.488.792,12.65,12.65,0,0,1-4.3-.768,11.964,11.964,0,0,1-3.863-2.28,11.564,11.564,0,0,1-2.809-3.769,11.983,11.983,0,0,1-1.079-5.231V.288Z" transform="translate(-1.15 0.672)" fill="#ffffff"/><path d="M332.1.288l16.9,28.7V.288h3.552V33.5H347.8l-16.9-28.7V33.5h-3.553V.288Z" transform="translate(-1.15 0.672)" fill="#ffffff"/><path d="M383.08.288V3.5H372.088v30h-3.552V3.5H357.544V.288Z" transform="translate(-1.15 0.672)" fill="#ffffff"/><path d="M398.823,17.04l9.5-16.752h4.08L400.5,20.16V33.5h-3.553V20.16L385.048.288h4.08Z" transform="translate(-1.15 0.672)" fill="#ffffff"/></g><g style="isolation:isolate"><path d="M118.418,42.989c-.45-2.67-.99-3.149-4.62-3.149h-3.96c-.87,0-1.02.239-1.02,1.17v6.51h4.26c2.52,0,3.12-.511,3.39-2.851h.69v6.99h-.69c-.24-2.46-.81-2.91-3.39-2.91h-4.26V55.2c0,2.279.42,2.669,2.73,2.789v.57h-8.43v-.57c2.28-.149,2.64-.51,2.64-3.119V42.029c0-2.189-.3-2.58-2.61-2.76V38.7h15.87l.15,4.29Z" transform="translate(-1.15 0.672)" fill="#ffffff"/><path d="M126.669,58.858c-3.63,0-6.479-2.97-6.479-7.14s2.7-6.96,6.75-6.96c3.66,0,6.48,2.73,6.48,6.87C133.419,55.8,130.719,58.858,126.669,58.858Zm2.55-11.76a3.453,3.453,0,0,0-2.85-1.5c-2.07,0-3.48,1.77-3.48,4.77a10.862,10.862,0,0,0,1.59,6.149,3.243,3.243,0,0,0,2.7,1.5c2.22,0,3.54-2.1,3.54-5.58A9.143,9.143,0,0,0,129.219,47.1Z" transform="translate(-1.15 0.672)" fill="#ffffff"/><path d="M141.669,58.858c-3.63,0-6.479-2.97-6.479-7.14s2.7-6.96,6.75-6.96c3.66,0,6.48,2.73,6.48,6.87C148.419,55.8,145.719,58.858,141.669,58.858Zm2.55-11.76a3.453,3.453,0,0,0-2.85-1.5c-2.07,0-3.48,1.77-3.48,4.77a10.862,10.862,0,0,0,1.59,6.149,3.243,3.243,0,0,0,2.7,1.5c2.22,0,3.54-2.1,3.54-5.58A9.143,9.143,0,0,0,144.219,47.1Z" transform="translate(-1.15 0.672)" fill="#ffffff"/><path d="M159.639,58.858l-.12-.09v-1.92a4.317,4.317,0,0,1-3.84,2.01c-3.33,0-5.55-2.609-5.55-6.449,0-4.26,2.79-7.65,6.24-7.65a4.392,4.392,0,0,1,3.15,1.29v-4.68c0-1.229-.27-1.529-1.38-1.529a4.975,4.975,0,0,0-.66.029V39.39c1.92-.511,2.97-.811,4.41-1.32l.15.061V55.139c0,1.38.24,1.71,1.32,1.71.15,0,.18,0,.69-.03v.48Zm-.12-10.26a3.122,3.122,0,0,0-3.06-3c-2.28,0-3.75,2.22-3.75,5.609,0,3.689,1.62,6.09,4.14,6.09a2.8,2.8,0,0,0,2.22-.96,1.546,1.546,0,0,0,.45-.84Z" transform="translate(-1.15 0.672)" fill="#ffffff"/><path d="M190.809,55.169c-1.74,2.489-4.65,3.81-8.189,3.81a10.148,10.148,0,0,1-7.08-2.67,10.5,10.5,0,0,1-2.88-7.5,10.844,10.844,0,0,1,2.7-7.409,9.541,9.541,0,0,1,7.29-3.12,13.39,13.39,0,0,1,3.57.45,10.619,10.619,0,0,0,2.07.54,1.3,1.3,0,0,0,1.26-.99h.6l.27,6.81h-.69a6.667,6.667,0,0,0-6.39-5.609c-4.53,0-7.2,3.66-7.2,8.85,0,3.3.75,5.64,2.16,7.17a7.261,7.261,0,0,0,5.34,2.159c2.7,0,4.35-.9,6.6-3.029Z" transform="translate(-1.15 0.672)" fill="#ffffff"/><path d="M199.179,58.858c-3.63,0-6.479-2.97-6.479-7.14s2.7-6.96,6.75-6.96c3.66,0,6.48,2.73,6.48,6.87C205.929,55.8,203.229,58.858,199.179,58.858Zm2.55-11.76a3.453,3.453,0,0,0-2.85-1.5c-2.07,0-3.48,1.77-3.48,4.77a10.862,10.862,0,0,0,1.59,6.149,3.243,3.243,0,0,0,2.7,1.5c2.22,0,3.54-2.1,3.54-5.58A9.143,9.143,0,0,0,201.729,47.1Z" transform="translate(-1.15 0.672)" fill="#ffffff"/><path d="M220.088,57.419a3.108,3.108,0,0,1-2.7,1.439c-1.11,0-1.771-.6-1.92-2.189h-.03a5.51,5.51,0,0,1-4.35,2.189,2.921,2.921,0,0,1-3.15-3.12,4.234,4.234,0,0,1,2.1-3.51,25.043,25.043,0,0,1,5.4-2.43v-1.62c0-1.859-.99-2.7-2.34-2.7-1.2,0-2.1.659-2.1,1.47,0,.54.18.63.18,1.26a1.377,1.377,0,0,1-1.38,1.23,1.361,1.361,0,0,1-1.29-1.381,2.985,2.985,0,0,1,1.53-2.4,6.591,6.591,0,0,1,3.449-.9,4.308,4.308,0,0,1,3.54,1.351c.72.87.84,1.5.84,3.33v5.729c0,1.38.391,1.979.931,1.979a1.832,1.832,0,0,0,1.289-.569Zm-4.649-6.9a11.386,11.386,0,0,0-3.84,1.98,2.912,2.912,0,0,0-1.02,2.31c0,1.59.9,2.311,2.069,2.311a3.238,3.238,0,0,0,1.74-.48,1.907,1.907,0,0,0,1.05-1.89Z" transform="translate(-1.15 0.672)" fill="#ffffff"/><path d="M220.778,58.559v-.45c1.89-.149,2.31-.66,2.31-2.31V41.729c0-1.44-.3-1.92-1.26-1.92a8.613,8.613,0,0,0-1.11.06V39.39c2.07-.511,3.181-.811,4.74-1.32l.15.12V55.948c0,1.65.329,2.04,2.249,2.16v.45Z" transform="translate(-1.15 0.672)" fill="#ffffff"/><path d="M228.969,58.559v-.45c2.069-.12,2.37-.39,2.37-2.67v-6.81c0-1.41-.24-1.89-.99-1.89a4.492,4.492,0,0,0-1.26.149v-.479l4.649-1.65.12.12v10.53c0,2.22.24,2.55,2.22,2.7v.45Zm3.359-17.43a1.492,1.492,0,0,1-1.5-1.529,1.537,1.537,0,0,1,1.53-1.53,1.53,1.53,0,1,1-.03,3.06Z" transform="translate(-1.15 0.672)" fill="#ffffff"/><path d="M245.2,56.579a4.129,4.129,0,0,1-3.63,2.279c-1.74,0-2.64-1.29-2.64-3.81V46.02h-1.591a.227.227,0,0,1-.119-.21c0-.181.18-.36.51-.57a11.27,11.27,0,0,0,2.91-3.21c.18-.27.42-.54.6-.84.15,0,.21.09.21.39v3.48h3.03v.96h-3.03V54.6c0,1.92.45,2.7,1.56,2.7a2.237,2.237,0,0,0,1.8-1.05Z" transform="translate(-1.15 0.672)" fill="#ffffff"/><path d="M245.648,58.559v-.45c2.069-.12,2.37-.39,2.37-2.67v-6.81c0-1.41-.24-1.89-.99-1.89a4.492,4.492,0,0,0-1.26.149v-.479l4.649-1.65.12.12v10.53c0,2.22.24,2.55,2.22,2.7v.45Zm3.359-17.43a1.492,1.492,0,0,1-1.5-1.529,1.537,1.537,0,0,1,1.53-1.53,1.53,1.53,0,1,1-.03,3.06Z" transform="translate(-1.15 0.672)" fill="#ffffff"/><path d="M260.858,58.858c-3.63,0-6.479-2.97-6.479-7.14s2.7-6.96,6.749-6.96c3.66,0,6.48,2.73,6.48,6.87C267.608,55.8,264.908,58.858,260.858,58.858Zm2.55-11.76a3.453,3.453,0,0,0-2.85-1.5c-2.07,0-3.48,1.77-3.48,4.77a10.866,10.866,0,0,0,1.59,6.149,3.243,3.243,0,0,0,2.7,1.5c2.22,0,3.54-2.1,3.54-5.58A9.143,9.143,0,0,0,263.408,47.1Z" transform="translate(-1.15 0.672)" fill="#ffffff"/><path d="M276.818,58.559l.03-.45c1.5-.12,1.859-.72,1.859-2.7v-5.97c0-2.131-.72-3.03-2.189-3.03-.99,0-1.71.36-3.09,1.71V56.4c0,1.17.42,1.59,1.949,1.71v.45h-6.329v-.45c1.529-.12,1.859-.6,1.859-2.37V48.449c0-1.47-.21-1.95-1.05-1.95a2.439,2.439,0,0,0-.87.12v-.51c1.65-.48,2.641-.811,4.11-1.351l.239.091v2.34h.03c1.561-1.771,2.94-2.431,4.32-2.431,2.279,0,3.54,1.65,3.54,4.62v6.63c0,1.62.359,1.95,1.829,2.1v.45Z" transform="translate(-1.15 0.672)" fill="#ffffff"/></g></svg>
